<?xml version="1.0" encoding="utf-8"?>
<!-- Generator: Adobe Illustrator 16.0.4, SVG Export Plug-In . SVG Version: 6.00 Build 0)  -->
<!DOCTYPE svg PUBLIC "-//W3C//DTD SVG 1.1//EN" "http://www.w3.org/Graphics/SVG/1.1/DTD/svg11.dtd">
<svg version="1.1" id="Layer_1" xmlns="http://www.w3.org/2000/svg" xmlns:xlink="http://www.w3.org/1999/xlink" x="0px" y="0px"
	 width="20px" height="20px" viewBox="40 40 20 20" enable-background="new 40 40 20 20" xml:space="preserve">
<g>
	<g>
		<g>
			<path fill="#BDBDBD" d="M57.105,57.158H42.895c-1.045,0-1.895-0.85-1.895-1.895V44.736c0-1.044,0.85-1.895,1.895-1.895h14.211
				c1.045,0,1.895,0.851,1.895,1.895v10.527C59,56.309,58.15,57.158,57.105,57.158z M42.895,44.263
				c-0.257,0-0.474,0.218-0.474,0.474v10.527c0,0.257,0.217,0.474,0.474,0.474h14.211c0.257,0,0.474-0.217,0.474-0.474V44.736
				c0-0.256-0.217-0.474-0.474-0.474H42.895z"/>
		</g>
	</g>
	<g>
		<path fill="#BDBDBD" d="M50,50.711c-0.154,0-0.308-0.05-0.437-0.149l-8.289-6.448l0.872-1.122L50,49.1l7.854-6.108l0.872,1.122
			l-8.289,6.448C50.308,50.661,50.154,50.711,50,50.711z"/>
	</g>
</g>
</svg>
