<?xml version="1.0" encoding="utf-8"?>
<!-- Generator: Adobe Illustrator 16.0.4, SVG Export Plug-In . SVG Version: 6.00 Build 0)  -->
<!DOCTYPE svg PUBLIC "-//W3C//DTD SVG 1.1//EN" "http://www.w3.org/Graphics/SVG/1.1/DTD/svg11.dtd">
<svg version="1.1" id="Layer_1" xmlns="http://www.w3.org/2000/svg" xmlns:xlink="http://www.w3.org/1999/xlink" x="0px" y="0px"
	 width="120px" height="120px" viewBox="0 0 120 120" enable-background="new 0 0 120 120" xml:space="preserve">
<circle fill="#4FC3F7" cx="60" cy="60" r="59"/>
<path fill="#FFFFFF" d="M60,24.05c0,0-3.6-5.333-16-5.333v25.467c0,0,9.4-1.067,16,5.533c6.6-6.6,16-5.533,16-5.533V18.717
	C63.6,18.717,60,24.05,60,24.05z"/>
<line fill="none" stroke="#4FC3F7" stroke-miterlimit="10" x1="60" y1="23.264" x2="60" y2="49.717"/>
<circle fill="#4FC3F7" stroke="#FFFFFF" stroke-miterlimit="10" cx="60" cy="34.217" r="6.717"/>
<polygon fill="#FFFFFF" stroke="#4FC3F7" stroke-linecap="round" stroke-linejoin="round" stroke-miterlimit="10" points="
	57.809,30.731 63.846,34.217 57.809,37.702 "/>
<path fill="#FFFFFF" d="M41.953,64.402c-0.057,0.004-0.141,0.006-0.221,0.006c-0.916,0-1.607-0.264-2.055-0.787
	c-0.556-0.65-0.513-1.447-0.487-1.67v-5.893h-1.693h-1.023H24.919c-1.242,0-2.258,1.016-2.258,2.259V85.8
	c0,1.24,1.016,2.259,2.258,2.259H45.25c1.242,0,2.259-1.019,2.259-2.259V67.234v-1.121V64.42L41.953,64.402z"/>
<path fill="#FFFFFF" d="M41.314,62.264c0.249,0.285,0.711,0.414,1.385,0.381l4.22,0.013l-5.827-5.859l-0.006,4.647
	C41.086,61.445,41.023,61.93,41.314,62.264z"/>
<g>
	
		<rect x="70.488" y="68.096" fill="#FFFFFF" stroke="#FFFFFF" stroke-linecap="round" stroke-linejoin="round" stroke-miterlimit="10" width="26.851" height="19.986"/>
	<path fill="#4FC3F7" d="M79.241,72.736c0-0.604,0.429-0.853,0.952-0.549l9.27,5.352c0.523,0.303,0.523,0.797,0,1.1l-9.27,5.352
		c-0.523,0.302-0.952,0.056-0.952-0.551V72.736z"/>
	<g>
		
			<rect x="70.488" y="64.914" fill="none" stroke="#FFFFFF" stroke-linecap="round" stroke-linejoin="round" stroke-miterlimit="10" width="26.851" height="3.311"/>
		<g>
			<polygon fill="#FFFFFF" points="70.488,68.225 73.846,68.225 77.2,64.914 73.846,64.914 			"/>
		</g>
		<g>
			<polygon fill="#FFFFFF" points="77.2,68.225 80.559,68.225 83.912,64.914 80.559,64.914 			"/>
		</g>
		<g>
			<polygon fill="#FFFFFF" points="83.912,68.225 87.27,68.225 90.626,64.914 87.27,64.914 			"/>
		</g>
		<g>
			<polygon fill="#FFFFFF" points="90.626,68.225 93.982,68.225 97.339,64.914 93.982,64.914 			"/>
		</g>
	</g>
	<g>
		
			<rect x="69.575" y="58.099" transform="matrix(-0.9641 0.2657 -0.2657 -0.9641 178.8933 95.3105)" fill="none" stroke="#FFFFFF" stroke-linecap="round" stroke-linejoin="round" stroke-miterlimit="10" width="26.85" height="3.313"/>
		<polygon fill="#FFFFFF" points="69.615,61.723 73.729,64.021 76.966,63.129 72.852,60.83 		"/>
		<polygon fill="#FFFFFF" points="76.086,59.938 80.201,62.238 83.438,61.348 79.32,59.045 		"/>
		<polygon fill="#FFFFFF" points="82.557,58.154 86.673,60.455 89.908,59.562 85.792,57.263 		"/>
		<polygon fill="#FFFFFF" points="89.027,56.371 93.143,58.67 96.379,57.78 92.266,55.479 		"/>
	</g>
</g>
<line fill="none" stroke="#4FC3F7" stroke-miterlimit="10" x1="27" y1="70.393" x2="42.167" y2="70.393"/>
<line fill="none" stroke="#4FC3F7" stroke-miterlimit="10" x1="27" y1="75.334" x2="42.167" y2="75.334"/>
<line fill="none" stroke="#4FC3F7" stroke-miterlimit="10" x1="27" y1="80.255" x2="35.085" y2="80.255"/>
</svg>
