<?xml version="1.0" encoding="utf-8"?>
<!-- Generator: Adobe Illustrator 16.0.4, SVG Export Plug-In . SVG Version: 6.00 Build 0)  -->
<!DOCTYPE svg PUBLIC "-//W3C//DTD SVG 1.1//EN" "http://www.w3.org/Graphics/SVG/1.1/DTD/svg11.dtd">
<svg version="1.1" id="Layer_1" xmlns="http://www.w3.org/2000/svg" xmlns:xlink="http://www.w3.org/1999/xlink" x="0px" y="0px"
	 width="20px" height="20px" viewBox="0 0 20 20" enable-background="new 0 0 20 20" xml:space="preserve">
<g>
	<g>
		<g>
			<path fill="#BDBDBD" d="M15.104,19.018H4.898C3.852,19.018,3,18.166,3,17.119v-7.41c0-1.046,0.852-1.898,1.898-1.898h10.204
				C16.148,7.811,17,8.663,17,9.709v7.41C17,18.166,16.148,19.018,15.104,19.018z M4.898,9.234c-0.257,0-0.475,0.218-0.475,0.475
				v7.41c0,0.256,0.217,0.473,0.475,0.473h10.204c0.258,0,0.477-0.217,0.477-0.473v-7.41c0-0.257-0.219-0.475-0.477-0.475H4.898z"/>
		</g>
		<path fill="#BDBDBD" d="M14.936,9.234H5.065V5.933C5.056,5.688,5.031,3.754,6.35,2.364C7.219,1.448,8.447,0.982,10,0.982
			c1.555,0,2.781,0.466,3.648,1.382c1.317,1.391,1.295,3.323,1.285,3.568v3.302H14.936z M6.488,7.811h7.024v-1.93
			c0.002-0.013,0.057-1.542-0.902-2.545C12.02,2.719,11.143,2.407,10,2.407c-1.142,0-2.02,0.312-2.609,0.929
			C6.43,4.339,6.487,5.868,6.488,5.884v0.035V7.811z"/>
	</g>
	<polygon fill="#BDBDBD" points="9.026,16.563 5.682,13.22 6.69,12.212 9.026,14.55 13.312,10.265 14.317,11.271 	"/>
</g>
</svg>
