<?xml version="1.0" encoding="utf-8"?>
<!-- Generator: Adobe Illustrator 16.0.4, SVG Export Plug-In . SVG Version: 6.00 Build 0)  -->
<!DOCTYPE svg PUBLIC "-//W3C//DTD SVG 1.1//EN" "http://www.w3.org/Graphics/SVG/1.1/DTD/svg11.dtd">
<svg version="1.1" id="Layer_1" xmlns="http://www.w3.org/2000/svg" xmlns:xlink="http://www.w3.org/1999/xlink" x="0px" y="0px"
	 width="26px" height="28px" viewBox="0 0 26 28" enable-background="new 0 0 26 28" xml:space="preserve">
<path fill="#BDBDBD" d="M21.459,19.768v-8.458c0-0.32-0.112-0.592-0.336-0.816c-0.226-0.224-0.497-0.336-0.817-0.337h-8.458
	c-0.32,0-0.593-0.112-0.817-0.337c-0.224-0.225-0.336-0.497-0.337-0.816v-0.77c0-0.32-0.112-0.593-0.336-0.817
	C10.132,7.192,9.86,7.08,9.541,7.08H5.695c-0.32,0-0.592,0.112-0.816,0.336C4.655,7.641,4.543,7.914,4.542,8.233v11.535
	c0,0.319,0.112,0.592,0.337,0.816s0.497,0.336,0.816,0.336h14.611c0.319,0,0.592-0.111,0.816-0.336S21.459,20.088,21.459,19.768z
	 M22.997,11.309v8.458c0,0.735-0.266,1.369-0.793,1.897c-0.528,0.528-1.161,0.793-1.898,0.793H5.695
	c-0.736,0-1.369-0.265-1.898-0.793c-0.53-0.528-0.793-1.161-0.793-1.897V8.233c0-0.737,0.264-1.37,0.793-1.898
	c0.528-0.529,1.161-0.793,1.898-0.793h3.846c0.736,0,1.37,0.264,1.898,0.793c0.529,0.528,0.794,1.161,0.793,1.898v0.384h8.074
	c0.736,0,1.37,0.265,1.898,0.793C22.733,9.939,22.997,10.572,22.997,11.309z"/>
</svg>
