<?xml version="1.0" encoding="utf-8"?>
<!-- Generator: Adobe Illustrator 16.0.4, SVG Export Plug-In . SVG Version: 6.00 Build 0)  -->
<!DOCTYPE svg PUBLIC "-//W3C//DTD SVG 1.1//EN" "http://www.w3.org/Graphics/SVG/1.1/DTD/svg11.dtd">
<svg version="1.1" id="Layer_1" xmlns="http://www.w3.org/2000/svg" xmlns:xlink="http://www.w3.org/1999/xlink" x="0px" y="0px"
	 width="120px" height="120px" viewBox="0 0 120 120" enable-background="new 0 0 120 120" xml:space="preserve">
<circle fill="#4FC3F7" cx="60" cy="60" r="59"/>
<g>
	<path fill="#FFFFFF" d="M20.394,49.767v8.605h10.897v4.323H20.394v11.841h-5.428V45.464h18.336v4.302L20.394,49.767L20.394,49.767z
		"/>
	<path fill="#FFFFFF" d="M60.423,74.535h-4.886c-0.925,0-1.595-0.361-2.01-1.086l-6.112-9.309c-0.229-0.348-0.479-0.597-0.754-0.742
		c-0.274-0.148-0.68-0.223-1.216-0.223h-2.312v11.358h-5.408v-29.07h8.866c1.971,0,3.663,0.205,5.077,0.613
		c1.414,0.408,2.573,0.982,3.478,1.719c0.905,0.737,1.571,1.619,2,2.644s0.644,2.155,0.644,3.388c0,0.979-0.144,1.903-0.432,2.774
		c-0.289,0.872-0.704,1.662-1.247,2.373c-0.543,0.71-1.213,1.333-2.011,1.87c-0.798,0.537-1.706,0.958-2.724,1.267
		c0.349,0.201,0.67,0.439,0.965,0.715c0.295,0.275,0.563,0.6,0.804,0.975L60.423,74.535z M46.51,59.296
		c1.018,0,1.906-0.127,2.664-0.382c0.757-0.254,1.38-0.606,1.87-1.056c0.489-0.449,0.854-0.981,1.096-1.598
		c0.241-0.616,0.362-1.293,0.362-2.031c0-1.474-0.486-2.606-1.458-3.397s-2.457-1.187-4.454-1.187h-3.458v9.65L46.51,59.296
		L46.51,59.296z"/>
	<path fill="#FFFFFF" d="M69.008,49.767v8.062h10.174v4.161H69.008v8.223h12.906v4.322H63.58V45.464h18.334v4.302L69.008,49.767
		L69.008,49.767z"/>
	<path fill="#FFFFFF" d="M92.127,49.767v8.062h10.174v4.161H92.127v8.223h12.908v4.322H86.699V45.464h18.336v4.302L92.127,49.767
		L92.127,49.767z"/>
</g>
</svg>
