<?xml version="1.0" encoding="utf-8"?>
<!-- Generator: Adobe Illustrator 16.0.4, SVG Export Plug-In . SVG Version: 6.00 Build 0)  -->
<!DOCTYPE svg PUBLIC "-//W3C//DTD SVG 1.1//EN" "http://www.w3.org/Graphics/SVG/1.1/DTD/svg11.dtd">
<svg version="1.1" id="Layer_1" xmlns="http://www.w3.org/2000/svg" xmlns:xlink="http://www.w3.org/1999/xlink" x="0px" y="0px"
	 width="20px" height="20px" viewBox="0 0 20 20" enable-background="new 0 0 20 20" xml:space="preserve">
<g>
	<g>
		<path fill="#BDBDBD" d="M15.092,19H4.906c-1.044,0-1.894-0.85-1.894-1.896V9.71c0-1.045,0.85-1.896,1.894-1.896h10.186
			c1.045,0,1.896,0.851,1.896,1.896v7.394C16.988,18.15,16.139,19,15.092,19z M4.906,9.237c-0.255,0-0.472,0.217-0.472,0.474v7.394
			c0,0.258,0.217,0.475,0.472,0.475h10.186c0.258,0,0.475-0.217,0.475-0.475V9.71c0-0.256-0.217-0.474-0.475-0.474H4.906z"/>
	</g>
	<path fill="#BDBDBD" d="M14.926,9.237H5.074V5.94C5.064,5.696,5.041,3.767,6.356,2.378C7.224,1.463,8.45,1,10,1
		c1.551,0,2.775,0.463,3.645,1.378c1.314,1.389,1.291,3.318,1.281,3.562V9.237L14.926,9.237z M6.495,7.816h7.011V5.889
		c0.002-0.012,0.057-1.539-0.902-2.541c-0.59-0.615-1.465-0.926-2.604-0.926S7.984,2.733,7.396,3.348
		C6.436,4.35,6.493,5.876,6.493,5.892v0.034v1.891H6.495z"/>
</g>
</svg>
