<?xml version="1.0" encoding="utf-8"?>
<!-- Generator: Adobe Illustrator 16.0.4, SVG Export Plug-In . SVG Version: 6.00 Build 0)  -->
<!DOCTYPE svg PUBLIC "-//W3C//DTD SVG 1.1//EN" "http://www.w3.org/Graphics/SVG/1.1/DTD/svg11.dtd">
<svg version="1.1" id="Layer_1" xmlns="http://www.w3.org/2000/svg" xmlns:xlink="http://www.w3.org/1999/xlink" x="0px" y="0px"
	 width="412px" height="412px" viewBox="0 0 412 412" enable-background="new 0 0 412 412" xml:space="preserve">
<rect fill="#F7F7F7" width="412" height="412"/>
<path opacity="0.1" enable-background="new    " d="M81.599,138.348l-16.262-2.492l2.493-16.262l16.262,2.493L81.599,138.348z
	 M67.927,133.954l11.771,1.805l1.804-11.771l-11.771-1.804L67.927,133.954z"/>
<path opacity="0.1" enable-background="new    " d="M306.541,350.332l-2.594-16.246l16.246-2.594l2.596,16.246L306.541,350.332z
	 M306.553,335.971l1.873,11.758l11.764-1.879l-1.881-11.756L306.553,335.971z"/>
<path opacity="0.1" enable-background="new    " d="M36.245,335.512c-5.083,0-9.218-4.137-9.218-9.219
	c0-5.088,4.135-9.223,9.218-9.223c5.082,0,9.217,4.135,9.217,9.222C45.463,331.377,41.327,335.512,36.245,335.512z M36.245,319.344
	c-3.831,0-6.946,3.117-6.946,6.949s3.115,6.947,6.946,6.947c3.829,0,6.945-3.115,6.945-6.947S40.074,319.344,36.245,319.344z"/>
<path opacity="0.1" enable-background="new    " d="M296.379,119.594c-5.082,0-9.219-4.133-9.219-9.22
	c0-5.086,4.133-9.218,9.219-9.218s9.219,4.132,9.219,9.218C305.598,115.462,301.461,119.594,296.379,119.594z M296.379,103.429
	c-3.83,0-6.945,3.116-6.945,6.945c0,3.832,3.115,6.947,6.945,6.947s6.947-3.115,6.947-6.947
	C303.326,106.546,300.209,103.429,296.379,103.429z"/>
<path opacity="0.1" enable-background="new    " d="M224.59,49.208l-15.33-13.001l18.922-6.776L224.59,49.208z M213.73,37.021
	l9.328,7.908l2.182-12.03L213.73,37.021z"/>
<path opacity="0.1" enable-background="new    " d="M151.698,345.428l-3.289-19.83l18.816,7.063L151.698,345.428z M151.293,329.111
	l2.002,12.061l9.447-7.762L151.293,329.111z"/>
<path opacity="0.1" enable-background="new    " d="M326.898,224.762l9.518-17.709l10.576,17.09L326.898,224.762z M336.551,211.598
	l-5.785,10.771l12.226-0.373L336.551,211.598z"/>
<rect x="68.377" y="15.284" transform="matrix(-0.9389 -0.3441 0.3441 -0.9389 126.7432 69.2219)" opacity="0.1" enable-background="new    " width="2.272" height="16.163"/>
<rect x="246.276" y="371.603" transform="matrix(-0.3434 0.9392 -0.9392 -0.3434 688.9723 277.7166)" opacity="0.1" enable-background="new    " width="2.272" height="16.162"/>
<polygon opacity="0.1" enable-background="new    " points="197.736,141.877 188.019,127.565 189.899,126.291 198.343,138.722 
	210.77,130.281 212.051,132.163 "/>
<path opacity="0.1" enable-background="new    " d="M76.663,243.473l-7.151-9.188l6.526-9.641l11.185,3.229l0.386,11.633
	L76.663,243.473z M72.318,234.191l5.124,6.582l7.84-2.842l-0.277-8.332l-8.012-2.314L72.318,234.191z"/>
<path opacity="0.1" enable-background="new    " d="M235.402,261.721c-0.422,0-0.812-0.234-1.01-0.615l-2.443-4.76l-5.279,0.854
	c-0.494,0.095-0.971-0.162-1.191-0.604c-0.227-0.435-0.143-0.969,0.203-1.316l3.769-3.797l-2.443-4.754
	c-0.227-0.438-0.143-0.973,0.205-1.321c0.347-0.351,0.873-0.435,1.315-0.214l4.777,2.406l3.766-3.795
	c0.349-0.351,0.888-0.431,1.318-0.213c0.439,0.225,0.688,0.701,0.613,1.188l-0.818,5.289l4.777,2.41
	c0.438,0.224,0.686,0.701,0.611,1.187c-0.076,0.483-0.457,0.868-0.939,0.949l-5.283,0.854l-0.815,5.285
	c-0.074,0.489-0.453,0.871-0.938,0.945C235.521,261.715,235.459,261.721,235.402,261.721z M232.578,253.959
	c0.422,0,0.814,0.23,1.01,0.613l1.227,2.384l0.41-2.647c0.074-0.488,0.455-0.869,0.939-0.947l2.641-0.428l-2.391-1.203
	c-0.438-0.227-0.686-0.705-0.607-1.188l0.408-2.646l-1.889,1.898c-0.344,0.346-0.873,0.434-1.314,0.213l-2.395-1.207l1.225,2.383
	c0.229,0.437,0.145,0.974-0.205,1.32l-1.881,1.896l2.641-0.43C232.459,253.963,232.518,253.959,232.578,253.959z"/>
<circle opacity="0.1" enable-background="new    " cx="140.531" cy="73.738" r="4"/>
<circle opacity="0.1" enable-background="new    " cx="175.531" cy="224.646" r="4"/>
<circle opacity="0.1" enable-background="new    " cx="375.5" cy="393.5" r="4"/>
<polygon opacity="0.1" fill="none" stroke="#000000" stroke-width="2" stroke-miterlimit="10" enable-background="new    " points="
	338.051,31.805 333.174,23.361 338.051,14.916 347.803,14.916 352.678,23.361 347.803,31.805 "/>
<polyline opacity="0.1" fill="none" stroke="#000000" stroke-width="2" stroke-miterlimit="10" enable-background="new    " points="
	389,138.348 381.5,151.5 393.5,157 385.5,170 "/>
</svg>
