<?xml version="1.0" encoding="utf-8"?>
<!-- Generator: Adobe Illustrator 16.0.4, SVG Export Plug-In . SVG Version: 6.00 Build 0)  -->
<!DOCTYPE svg PUBLIC "-//W3C//DTD SVG 1.1//EN" "http://www.w3.org/Graphics/SVG/1.1/DTD/svg11.dtd">
<svg version="1.1" id="Layer_1" xmlns="http://www.w3.org/2000/svg" xmlns:xlink="http://www.w3.org/1999/xlink" x="0px" y="0px"
	 width="20px" height="20px" viewBox="40 40 20 20" enable-background="new 40 40 20 20" xml:space="preserve">
<g>
	<g>
		<path fill="#BDBDBD" d="M50,52.093c-3.02,0-5.477-2.456-5.477-5.477c0-3.02,2.457-5.476,5.477-5.476s5.477,2.456,5.477,5.476
			C55.477,49.637,53.02,52.093,50,52.093z M50,42.562c-2.235,0-4.055,1.819-4.055,4.055c0,2.236,1.819,4.056,4.055,4.056
			c2.236,0,4.056-1.819,4.056-4.056C54.056,44.381,52.236,42.562,50,42.562z"/>
	</g>
	<g>
		<path fill="#BDBDBD" d="M58.29,58.859H41.711c-0.214,0-0.415-0.096-0.551-0.261c-0.135-0.165-0.188-0.382-0.146-0.591
			c0.863-4.251,4.642-7.336,8.985-7.336s8.123,3.085,8.986,7.336c0.042,0.209-0.012,0.426-0.146,0.591S58.503,58.859,58.29,58.859z
			 M42.632,57.438h14.737c-1.025-3.145-3.995-5.346-7.369-5.346C46.627,52.093,43.656,54.294,42.632,57.438z"/>
	</g>
</g>
</svg>
